<?xml version="1.0" encoding="utf-8"?>
<!-- Generator: Adobe Illustrator 27.1.0, SVG Export Plug-In . SVG Version: 6.00 Build 0)  -->
<svg version="1.1" id="Layer_1" xmlns="http://www.w3.org/2000/svg" xmlns:xlink="http://www.w3.org/1999/xlink" x="0px" y="0px"
	 viewBox="0 0 1295.1 327.3" style="enable-background:new 0 0 1295.1 327.3;" xml:space="preserve">
<style type="text/css">
	.st0{fill:#FBBA3D;}
	.st1{fill:#FED697;}
	.st2{fill-rule:evenodd;clip-rule:evenodd;fill:#FBBA3D;}
	.st3{fill-rule:evenodd;clip-rule:evenodd;fill:#FED697;}
	.st4{enable-background:new    ;}
	.st5{fill:#050606;}
	.st6{clip-path:url(#SVGID_00000094596732580321299730000002799339252724910264_);}
	.st7{fill:#020203;}
	.st8{fill:#FFFFFF;}
	.st9{fill:none;}
	.st10{clip-path:url(#SVGID_00000136379811386540477470000012836025091213724579_);}
	.st11{fill:#717171;}
	.st12{clip-path:url(#SVGID_00000126311853105264394540000016855897282218109613_);}
	.st13{clip-path:url(#SVGID_00000077287757176029258750000017813814788417520574_);}
	.st14{clip-path:url(#SVGID_00000080174465520078256030000017654286891860875436_);}
</style>
<g id="Group_38692" transform="translate(-268.941 -2080.802)">
	<g id="Path_42328">
		<path class="st0" d="M1400.4,2080.8c90.4,0,163.7,73.3,163.7,163.7s-73.3,163.7-163.7,163.7c-90.4,0-163.7-73.3-163.7-163.7
			C1236.7,2154.1,1310,2080.8,1400.4,2080.8 M1400.4,2085.3c-87.9,0-159.1,71.2-159.1,159.1c0,87.9,71.2,159.1,159.1,159.1
			c87.9,0,159.1-71.2,159.1-159.1C1559.5,2156.6,1488.3,2085.4,1400.4,2085.3"/>
	</g>
	<g id="Path_42329">
		<path class="st1" d="M432.6,2080.8c90.4,0,163.7,73.3,163.7,163.7s-73.3,163.7-163.7,163.7c-90.4,0-163.7-73.3-163.7-163.7
			C268.9,2154.1,342.2,2080.8,432.6,2080.8 M432.6,2085.3c-87.9,0-159.1,71.2-159.1,159.1c0,87.9,71.2,159.1,159.1,159.1
			c87.9,0,159.1-71.2,159.1-159.1C591.7,2156.6,520.5,2085.4,432.6,2085.3"/>
	</g>
	<g id="Path_42330">
		<path class="st0" d="M626.2,2080.8c90.4,0,163.7,73.3,163.7,163.7s-73.3,163.7-163.7,163.7c-90.4,0-163.7-73.3-163.7-163.7
			C462.5,2154.1,535.8,2080.8,626.2,2080.8C626.2,2080.8,626.2,2080.8,626.2,2080.8 M626.2,2085.3c-87.9,0-159.1,71.2-159.1,159.1
			c0,87.9,71.2,159.1,159.1,159.1c87.9,0,159.1-71.2,159.1-159.1C785.3,2156.6,714.1,2085.4,626.2,2085.3"/>
	</g>
	<g id="Path_42331">
		<path class="st1" d="M819.7,2080.8c90.4,0,163.7,73.3,163.7,163.7s-73.3,163.7-163.7,163.7c-90.4,0-163.7-73.3-163.7-163.7
			C656.1,2154.1,729.3,2080.8,819.7,2080.8 M819.7,2085.3c-87.9,0-159.1,71.2-159.1,159.1c0,87.9,71.2,159.1,159.1,159.1
			c87.9,0,159.1-71.2,159.1-159.1c0,0,0,0,0,0C978.8,2156.6,907.6,2085.4,819.7,2085.3"/>
	</g>
	<g id="Path_42332">
		<path class="st1" d="M1013.3,2080.8c90.4,0,163.7,73.3,163.7,163.7s-73.3,163.7-163.7,163.7c-90.4,0-163.7-73.3-163.7-163.7
			C849.6,2154.1,922.9,2080.8,1013.3,2080.8 M1013.3,2085.3c-87.9,0-159.1,71.2-159.1,159.1c0,87.9,71.2,159.1,159.1,159.1
			c87.9,0,159.1-71.2,159.1-159.1c0,0,0,0,0,0C1172.4,2156.6,1101.2,2085.4,1013.3,2085.3"/>
	</g>
	<g id="Path_42333">
		<path class="st1" d="M1206.8,2080.8c90.4,0,163.7,73.3,163.7,163.7c0,90.4-73.3,163.7-163.7,163.7s-163.7-73.3-163.7-163.7
			c0,0,0,0,0,0C1043.2,2154.1,1116.4,2080.8,1206.8,2080.8 M1206.8,2085.3c-87.9,0-159.1,71.2-159.1,159.1
			c0,87.9,71.2,159.1,159.1,159.1c87.9,0,159.1-71.2,159.1-159.1c0,0,0,0,0,0C1366,2156.6,1294.7,2085.4,1206.8,2085.3"/>
	</g>
	<g id="Path_42334">
		<path class="st2" d="M1400.4,2128.5c64.1,0,116,51.9,116,116c0,64.1-51.9,116-116,116c-64.1,0-116-51.9-116-116c0,0,0,0,0,0
			C1284.4,2180.4,1336.3,2128.5,1400.4,2128.5"/>
	</g>
	<g id="Path_42335">
		<path class="st3" d="M1091.5,2244.5c0-64.1,51.9-116,116-116c53.3,0,99.8,36.4,112.6,88.1l21.8,27.9l-21.8,27.9
			c-15.4,62.2-78.3,100.1-140.5,84.7C1127.8,2344.2,1091.5,2297.8,1091.5,2244.5"/>
	</g>
	<g id="Path_42336">
		<path class="st2" d="M897.9,2244.5c0-64.1,51.9-116,116-116c53.3,0,99.8,36.4,112.6,88.1l21.8,27.9l-21.8,27.9
			c-15.4,62.2-78.3,100.1-140.4,84.7C934.3,2344.2,897.9,2297.8,897.9,2244.5"/>
	</g>
	<g id="Path_42337">
		<path class="st3" d="M704.4,2244.5c0-64.1,51.9-116,116-116c53.3,0,99.8,36.4,112.6,88.1l21.8,27.9l-21.8,27.9
			c-15.4,62.2-78.3,100.1-140.5,84.7C740.7,2344.2,704.4,2297.8,704.4,2244.5"/>
	</g>
	<g id="Path_42338">
		<path class="st2" d="M510.8,2244.5c0-64.1,51.9-116,116-116c53.3,0,99.8,36.4,112.6,88.1l21.8,27.9l-21.8,27.9
			c-15.4,62.2-78.3,100.1-140.4,84.7C547.2,2344.2,510.8,2297.8,510.8,2244.5"/>
	</g>
	<g id="Path_42339">
		<path class="st3" d="M317,2244.5c0-64.1,51.9-116,116-116c53.3,0,99.8,36.4,112.6,88.1l21.8,27.9l-21.8,27.9
			c-15.4,62.2-78.3,100.1-140.4,84.7C353.4,2344.2,317,2297.8,317,2244.5"/>
	</g>
	<g class="st4">
		<path class="st5" d="M371.8,2278.3V2268h2.8v10.2c0,2.3,1.5,3.2,3.2,3.2c1.7,0,3.2-1,3.2-3.2V2268h2.8v10.3c0,3.6-2.8,5.8-6,5.8
			C374.6,2284.1,371.8,2282,371.8,2278.3z"/>
		<path class="st5" d="M397.2,2277.8v6h-2.7v-5.8c0-1.7-1-2.6-2.2-2.6c-1.2,0-2.7,0.7-2.7,2.8v5.7h-2.7v-10.7h2.7v1.7
			c0.6-1.4,2.2-2,3.3-2C395.6,2272.8,397.2,2274.7,397.2,2277.8z"/>
		<path class="st5" d="M408.4,2267.3h2.7v16.6h-2.7v-1.4c-0.7,1.1-2.3,1.7-3.6,1.7c-2.8,0-5.3-2.2-5.3-5.7c0-3.4,2.4-5.6,5.3-5.6
			c1.4,0,2.9,0.6,3.6,1.7V2267.3z M408.4,2278.5c0-1.9-1.6-3.1-3.1-3.1c-1.7,0-3,1.3-3,3.1c0,1.8,1.4,3.2,3,3.2
			C406.9,2281.6,408.4,2280.3,408.4,2278.5z"/>
		<path class="st5" d="M424.7,2279.4h-8.3c0.3,1.5,1.4,2.3,3.1,2.3c1.1,0,2.3-0.5,2.9-1.4l1.8,1.4c-1,1.6-2.9,2.4-4.9,2.4
			c-3.2,0-5.6-2.3-5.6-5.7c0-3.4,2.6-5.6,5.6-5.6c3.1,0,5.5,2.2,5.5,5.5C424.7,2278.7,424.7,2279,424.7,2279.4z M422.1,2277.6
			c-0.2-1.5-1.3-2.3-2.8-2.3c-1.4,0-2.6,0.7-2.9,2.3H422.1z"/>
		<path class="st5" d="M434.7,2273.2l-0.5,2.5c-0.6-0.3-1.2-0.4-1.6-0.4c-1.7,0-2.7,1.7-2.7,4.8v3.7h-2.7v-10.7h2.7v2.3
			c0.6-1.8,1.7-2.6,3.1-2.6C433.6,2272.8,434.3,2273,434.7,2273.2z"/>
		<path class="st5" d="M435.6,2280.5h2.5c0,0.7,0.6,1.4,1.8,1.4c1.1,0,1.7-0.5,1.7-1.2c0-0.6-0.5-0.9-1.3-1.1l-1.4-0.4
			c-2.4-0.6-3-1.9-3-3.3c0-1.7,1.7-3.2,4-3.2c1.9,0,4.1,1,4,3.4h-2.6c0-0.7-0.7-1.2-1.4-1.2c-0.8,0-1.4,0.5-1.4,1.2
			c0,0.6,0.5,0.9,1.1,1l1.7,0.5c2.4,0.6,2.9,2.1,2.9,3.1c0,2.2-2.2,3.4-4.4,3.4C437.8,2284.1,435.6,2282.8,435.6,2280.5z"/>
		<path class="st5" d="M452.6,2273.1v2.1h-2.3v8.6h-2.7v-8.6h-1.9v-2.1h1.9v-4h2.7v4H452.6z"/>
		<path class="st5" d="M462.6,2273.1h2.7v10.7h-2.7v-1.7c-0.7,1.2-2.1,2-3.7,2c-2.9,0-5.2-2.3-5.2-5.7c0-3.2,2.2-5.6,5.2-5.6
			c1.5,0,2.9,0.6,3.6,1.8V2273.1z M462.6,2278.5c0-1.8-1.5-3.2-3.1-3.2c-1.7,0-3,1.4-3,3.2s1.3,3.2,3.1,3.2
			C461.2,2281.6,462.6,2280.3,462.6,2278.5z"/>
		<path class="st5" d="M478.8,2277.8v6h-2.7v-5.8c0-1.7-1-2.6-2.2-2.6c-1.2,0-2.7,0.7-2.7,2.8v5.7h-2.7v-10.7h2.7v1.7
			c0.6-1.4,2.2-2,3.3-2C477.2,2272.8,478.8,2274.7,478.8,2277.8z"/>
		<path class="st5" d="M490,2267.3h2.7v16.6H490v-1.4c-0.7,1.1-2.3,1.7-3.6,1.7c-2.8,0-5.3-2.2-5.3-5.7c0-3.4,2.4-5.6,5.3-5.6
			c1.4,0,2.9,0.6,3.6,1.7V2267.3z M490,2278.5c0-1.9-1.6-3.1-3.1-3.1c-1.7,0-3,1.3-3,3.1c0,1.8,1.4,3.2,3,3.2
			C488.5,2281.6,490,2280.3,490,2278.5z"/>
	</g>
	<g class="st4">
		<path class="st5" d="M599.4,2268c4.5,0,7.2,3.4,7.2,8c0,4.5-2.6,7.9-7.2,7.9h-6.2V2268H599.4z M599.4,2281.3
			c2.9,0,4.3-2.4,4.3-5.4c0-3-1.5-5.4-4.3-5.4H596v10.8H599.4z"/>
		<path class="st5" d="M619.7,2279.4h-8.3c0.3,1.5,1.4,2.3,3.1,2.3c1.1,0,2.3-0.5,2.9-1.4l1.8,1.4c-1,1.6-2.9,2.4-4.9,2.4
			c-3.2,0-5.6-2.3-5.6-5.7c0-3.4,2.6-5.6,5.6-5.6c3.1,0,5.5,2.2,5.5,5.5C619.7,2278.7,619.7,2279,619.7,2279.4z M617.1,2277.6
			c-0.2-1.5-1.3-2.3-2.8-2.3c-1.4,0-2.6,0.7-2.9,2.3H617.1z"/>
		<path class="st5" d="M632.9,2273.1v10.7h-2.7v-8.6h-4.5v8.6H623v-8.6h-2v-2.1h2v-0.9c0-3.1,1.5-4.9,4.5-4.9h0.7v2.5h-0.4
			c-1.6,0-2.1,0.9-2.1,2.1v1.2H632.9z M629.8,2269.3c0-0.9,0.8-1.6,1.7-1.6c0.9,0,1.7,0.7,1.7,1.6c0,0.9-0.8,1.6-1.7,1.6
			C630.6,2271,629.8,2270.2,629.8,2269.3z"/>
		<path class="st5" d="M646.4,2277.8v6h-2.7v-5.8c0-1.7-1-2.6-2.2-2.6c-1.2,0-2.7,0.7-2.7,2.8v5.7h-2.7v-10.7h2.7v1.7
			c0.6-1.4,2.2-2,3.3-2C644.8,2272.8,646.4,2274.7,646.4,2277.8z"/>
		<path class="st5" d="M659.8,2279.4h-8.3c0.3,1.5,1.4,2.3,3.1,2.3c1.1,0,2.3-0.5,2.9-1.4l1.8,1.4c-1,1.6-2.9,2.4-4.9,2.4
			c-3.2,0-5.6-2.3-5.6-5.7c0-3.4,2.6-5.6,5.6-5.6c3.1,0,5.5,2.2,5.5,5.5C659.9,2278.7,659.8,2279,659.8,2279.4z M657.2,2277.6
			c-0.2-1.5-1.3-2.3-2.8-2.3c-1.4,0-2.6,0.7-2.9,2.3H657.2z"/>
	</g>
	<g class="st4">
		<path class="st5" d="M768.2,2281.3h7.2v2.5h-10V2268h9.7v2.5h-6.9v4.3h6.1v2.6h-6.1V2281.3z"/>
		<path class="st5" d="M795,2277.8v6h-2.6v-5.9c0-1.7-0.9-2.6-2.1-2.6c-1.5,0-2.4,1.1-2.4,3.2v5.3h-2.7v-5.9c0-1.7-0.9-2.6-2-2.6
			c-1.2,0-2.5,0.7-2.5,2.8v5.7h-2.7v-10.7h2.7v1.7c0.5-1.2,1.9-1.9,3.2-1.9c1.6,0,2.8,0.8,3.5,2.2c0.9-1.7,2.5-2.2,3.6-2.2
			C793.6,2272.8,795,2274.7,795,2277.8z"/>
		<path class="st5" d="M809.6,2278.5c0,3.4-2.4,5.6-5.3,5.6c-1.4,0-2.9-0.6-3.6-1.7v6.7h-2.7v-16h2.7v1.4c0.7-1.2,2.3-1.7,3.6-1.7
			C807.1,2272.8,809.6,2275,809.6,2278.5z M806.9,2278.5c0-1.8-1.4-3.2-3-3.2c-1.6,0-3.1,1.3-3.1,3.2c0,1.9,1.6,3.2,3.1,3.2
			C805.5,2281.6,806.9,2280.3,806.9,2278.5z"/>
		<path class="st5" d="M820.3,2273.1h2.7v10.7h-2.7v-1.7c-0.7,1.2-2.1,2-3.7,2c-2.9,0-5.2-2.3-5.2-5.7c0-3.2,2.2-5.6,5.2-5.6
			c1.5,0,2.9,0.6,3.6,1.8V2273.1z M820.3,2278.5c0-1.8-1.5-3.2-3.1-3.2c-1.7,0-3,1.4-3,3.2s1.3,3.2,3.1,3.2
			C818.8,2281.6,820.3,2280.3,820.3,2278.5z"/>
		<path class="st5" d="M832.1,2273.1v2.1h-2.3v8.6h-2.7v-8.6h-1.9v-2.1h1.9v-4h2.7v4H832.1z"/>
		<path class="st5" d="M844.4,2277.8v6h-2.7v-5.8c0-1.7-1-2.6-2.2-2.6c-1.2,0-2.7,0.7-2.7,2.8v5.7h-2.7v-16.6h2.7v7.5
			c0.5-1.3,2.3-1.9,3.3-1.9C842.9,2272.8,844.4,2274.7,844.4,2277.8z"/>
		<path class="st5" d="M847,2269.3c0-0.9,0.8-1.6,1.7-1.6c1,0,1.7,0.7,1.7,1.6c0,0.9-0.8,1.6-1.7,1.6
			C847.8,2271,847,2270.2,847,2269.3z M847.5,2283.9v-10.7h2.7v10.7H847.5z"/>
		<path class="st5" d="M852.6,2280.5h2.5c0,0.7,0.6,1.4,1.8,1.4c1.1,0,1.7-0.5,1.7-1.2c0-0.6-0.5-0.9-1.3-1.1l-1.4-0.4
			c-2.4-0.6-3-1.9-3-3.3c0-1.7,1.7-3.2,4-3.2c1.9,0,4.1,1,4,3.4h-2.6c0-0.7-0.7-1.2-1.4-1.2c-0.8,0-1.4,0.5-1.4,1.2
			c0,0.6,0.5,0.9,1.1,1l1.7,0.5c2.4,0.6,2.9,2.1,2.9,3.1c0,2.2-2.2,3.4-4.4,3.4C854.7,2284.1,852.6,2282.8,852.6,2280.5z"/>
		<path class="st5" d="M874.2,2279.4h-8.3c0.3,1.5,1.4,2.3,3.1,2.3c1.1,0,2.3-0.5,2.9-1.4l1.8,1.4c-1,1.6-2.9,2.4-4.9,2.4
			c-3.2,0-5.6-2.3-5.6-5.7c0-3.4,2.6-5.6,5.6-5.6c3.1,0,5.5,2.2,5.5,5.5C874.2,2278.7,874.2,2279,874.2,2279.4z M871.6,2277.6
			c-0.2-1.5-1.3-2.3-2.8-2.3c-1.4,0-2.6,0.7-2.9,2.3H871.6z"/>
	</g>
	<g class="st4">
		<path class="st5" d="M978.3,2283.9V2268h2.8v15.8H978.3z"/>
		<path class="st5" d="M992.6,2267.3h2.7v16.6h-2.7v-1.4c-0.7,1.1-2.3,1.7-3.6,1.7c-2.8,0-5.3-2.2-5.3-5.7c0-3.4,2.4-5.6,5.3-5.6
			c1.4,0,2.9,0.6,3.6,1.7V2267.3z M992.6,2278.5c0-1.9-1.6-3.1-3.1-3.1c-1.7,0-3,1.3-3,3.1c0,1.8,1.4,3.2,3,3.2
			C991.1,2281.6,992.6,2280.3,992.6,2278.5z"/>
		<path class="st5" d="M1008.9,2279.4h-8.3c0.3,1.5,1.4,2.3,3.1,2.3c1.2,0,2.3-0.5,2.9-1.4l1.8,1.4c-1,1.6-2.9,2.4-4.9,2.4
			c-3.2,0-5.6-2.3-5.6-5.7c0-3.4,2.6-5.6,5.6-5.6c3.1,0,5.5,2.2,5.5,5.5C1008.9,2278.7,1008.9,2279,1008.9,2279.4z M1006.3,2277.6
			c-0.2-1.5-1.3-2.3-2.8-2.3c-1.4,0-2.6,0.7-2.9,2.3H1006.3z"/>
		<path class="st5" d="M1019.6,2273.1h2.7v10.7h-2.7v-1.7c-0.7,1.2-2.1,2-3.7,2c-2.9,0-5.2-2.3-5.2-5.7c0-3.2,2.2-5.6,5.2-5.6
			c1.5,0,2.9,0.6,3.6,1.8V2273.1z M1019.5,2278.5c0-1.8-1.5-3.2-3.1-3.2c-1.7,0-3,1.4-3,3.2s1.3,3.2,3.1,3.2
			C1018.1,2281.6,1019.5,2280.3,1019.5,2278.5z"/>
		<path class="st5" d="M1031.3,2273.1v2.1h-2.3v8.6h-2.7v-8.6h-1.9v-2.1h1.9v-4h2.7v4H1031.3z"/>
		<path class="st5" d="M1043.6,2279.4h-8.3c0.3,1.5,1.4,2.3,3.1,2.3c1.1,0,2.3-0.5,2.9-1.4l1.8,1.4c-1,1.6-2.9,2.4-4.9,2.4
			c-3.2,0-5.6-2.3-5.6-5.7c0-3.4,2.6-5.6,5.6-5.6c3.1,0,5.5,2.2,5.5,5.5C1043.6,2278.7,1043.6,2279,1043.6,2279.4z M1041,2277.6
			c-0.2-1.5-1.3-2.3-2.8-2.3c-1.4,0-2.6,0.7-2.9,2.3H1041z"/>
	</g>
	<g class="st4">
		<path class="st5" d="M1171.2,2275.9c0-4.5,3.6-8.2,8-8.2c2.6,0,4.9,1.2,6.3,3.1l-2.1,1.6c-1-1.3-2.4-2.1-4.1-2.1
			c-3,0-5.3,2.6-5.3,5.6s2.2,5.6,5.3,5.6c1.7,0,3.2-0.8,4.1-2.1l2.1,1.6c-1.4,1.9-3.7,3.1-6.3,3.1
			C1174.8,2284.1,1171.2,2280.4,1171.2,2275.9z"/>
		<path class="st5" d="M1195.2,2273.2l-0.5,2.5c-0.6-0.3-1.2-0.4-1.6-0.4c-1.7,0-2.7,1.7-2.7,4.8v3.7h-2.7v-10.7h2.7v2.3
			c0.6-1.8,1.7-2.6,3.1-2.6C1194.1,2272.8,1194.8,2273,1195.2,2273.2z"/>
		<path class="st5" d="M1207.1,2279.4h-8.3c0.3,1.5,1.4,2.3,3.1,2.3c1.2,0,2.3-0.5,2.9-1.4l1.8,1.4c-1,1.6-2.9,2.4-4.9,2.4
			c-3.2,0-5.6-2.3-5.6-5.7c0-3.4,2.6-5.6,5.6-5.6c3.1,0,5.5,2.2,5.5,5.5C1207.1,2278.7,1207.1,2279,1207.1,2279.4z M1204.5,2277.6
			c-0.2-1.5-1.3-2.3-2.8-2.3c-1.4,0-2.6,0.7-2.9,2.3H1204.5z"/>
		<path class="st5" d="M1217.8,2273.1h2.7v10.7h-2.7v-1.7c-0.7,1.2-2.1,2-3.7,2c-2.9,0-5.2-2.3-5.2-5.7c0-3.2,2.2-5.6,5.2-5.6
			c1.5,0,2.9,0.6,3.6,1.8V2273.1z M1217.7,2278.5c0-1.8-1.5-3.2-3.1-3.2c-1.7,0-3,1.4-3,3.2s1.3,3.2,3.1,3.2
			C1216.3,2281.6,1217.7,2280.3,1217.7,2278.5z"/>
		<path class="st5" d="M1229.5,2273.1v2.1h-2.3v8.6h-2.7v-8.6h-1.9v-2.1h1.9v-4h2.7v4H1229.5z"/>
		<path class="st5" d="M1241.8,2279.4h-8.3c0.3,1.5,1.4,2.3,3.1,2.3c1.2,0,2.3-0.5,2.9-1.4l1.8,1.4c-1,1.6-2.9,2.4-4.9,2.4
			c-3.2,0-5.6-2.3-5.6-5.7c0-3.4,2.6-5.6,5.6-5.6c3.1,0,5.5,2.2,5.5,5.5C1241.8,2278.7,1241.8,2279,1241.8,2279.4z M1239.2,2277.6
			c-0.2-1.5-1.3-2.3-2.8-2.3c-1.4,0-2.6,0.7-2.9,2.3H1239.2z"/>
	</g>
	<g class="st4">
		<path class="st5" d="M1335.1,2275.9c0-4.5,3.6-8.2,8-8.2c2.6,0,4.9,1.2,6.3,3.1l-2.1,1.6c-1-1.3-2.4-2.1-4.1-2.1
			c-3,0-5.3,2.6-5.3,5.6s2.2,5.6,5.3,5.6c1.7,0,3.2-0.8,4.1-2.1l2.1,1.6c-1.4,1.9-3.7,3.1-6.3,3.1
			C1338.7,2284.1,1335.1,2280.4,1335.1,2275.9z"/>
		<path class="st5" d="M1350.9,2278.5c0-3.4,2.6-5.6,5.7-5.6c3.1,0,5.7,2.2,5.7,5.6s-2.7,5.7-5.7,5.7
			C1353.5,2284.1,1350.9,2281.9,1350.9,2278.5z M1359.6,2278.5c0-1.8-1.4-3.2-3-3.2c-1.7,0-3,1.3-3,3.2c0,1.9,1.4,3.2,3,3.2
			C1358.2,2281.6,1359.6,2280.4,1359.6,2278.5z"/>
		<path class="st5" d="M1372.3,2273.2l-0.5,2.5c-0.6-0.3-1.2-0.4-1.6-0.4c-1.7,0-2.7,1.7-2.7,4.8v3.7h-2.7v-10.7h2.7v2.3
			c0.6-1.8,1.7-2.6,3.1-2.6C1371.2,2272.8,1371.9,2273,1372.3,2273.2z"/>
		<path class="st5" d="M1381.6,2273.2l-0.5,2.5c-0.6-0.3-1.2-0.4-1.6-0.4c-1.7,0-2.7,1.7-2.7,4.8v3.7h-2.7v-10.7h2.7v2.3
			c0.6-1.8,1.7-2.6,3.1-2.6C1380.5,2272.8,1381.1,2273,1381.6,2273.2z"/>
		<path class="st5" d="M1382.3,2278.5c0-3.4,2.6-5.6,5.7-5.6c3.1,0,5.7,2.2,5.7,5.6s-2.7,5.7-5.7,5.7
			C1385,2284.1,1382.3,2281.9,1382.3,2278.5z M1391.1,2278.5c0-1.8-1.4-3.2-3-3.2c-1.7,0-3,1.3-3,3.2c0,1.9,1.4,3.2,3,3.2
			C1389.7,2281.6,1391.1,2280.4,1391.1,2278.5z"/>
		<path class="st5" d="M1407.8,2278.5c0,3.4-2.5,5.7-5.3,5.7c-1.3,0-2.8-0.6-3.6-1.7v1.4h-2.7v-16.6h2.7v7.3
			c0.7-1.2,2.2-1.7,3.6-1.7C1405.3,2272.8,1407.8,2275,1407.8,2278.5z M1405.1,2278.5c0-1.8-1.4-3.1-3-3.1c-1.5,0-3.1,1.2-3.1,3.1
			c0,1.9,1.5,3.2,3.1,3.2C1403.7,2281.6,1405.1,2280.2,1405.1,2278.5z"/>
		<path class="st5" d="M1409.6,2278.5c0-3.4,2.6-5.6,5.7-5.6c3.1,0,5.7,2.2,5.7,5.6s-2.7,5.7-5.7,5.7
			C1412.3,2284.1,1409.6,2281.9,1409.6,2278.5z M1418.4,2278.5c0-1.8-1.4-3.2-3-3.2c-1.7,0-3,1.3-3,3.2c0,1.9,1.4,3.2,3,3.2
			C1417,2281.6,1418.4,2280.4,1418.4,2278.5z"/>
		<path class="st5" d="M1431.1,2273.2l-0.5,2.5c-0.6-0.3-1.2-0.4-1.6-0.4c-1.7,0-2.7,1.7-2.7,4.8v3.7h-2.7v-10.7h2.7v2.3
			c0.6-1.8,1.7-2.6,3.1-2.6C1430,2272.8,1430.7,2273,1431.1,2273.2z"/>
		<path class="st5" d="M1440.7,2273.1h2.7v10.7h-2.7v-1.7c-0.7,1.2-2.1,2-3.7,2c-2.9,0-5.2-2.3-5.2-5.7c0-3.2,2.2-5.6,5.2-5.6
			c1.5,0,2.9,0.6,3.6,1.8V2273.1z M1440.7,2278.5c0-1.8-1.5-3.2-3.1-3.2c-1.7,0-3,1.4-3,3.2s1.3,3.2,3.1,3.2
			C1439.2,2281.6,1440.7,2280.3,1440.7,2278.5z"/>
		<path class="st5" d="M1452.5,2273.1v2.1h-2.3v8.6h-2.7v-8.6h-1.9v-2.1h1.9v-4h2.7v4H1452.5z"/>
		<path class="st5" d="M1464.7,2279.4h-8.3c0.3,1.5,1.4,2.3,3.1,2.3c1.1,0,2.3-0.5,2.9-1.4l1.8,1.4c-1,1.6-2.9,2.4-4.9,2.4
			c-3.2,0-5.6-2.3-5.6-5.7c0-3.4,2.6-5.6,5.6-5.6c3.1,0,5.5,2.2,5.5,5.5C1464.7,2278.7,1464.7,2279,1464.7,2279.4z M1462.1,2277.6
			c-0.2-1.5-1.3-2.3-2.8-2.3c-1.4,0-2.6,0.7-2.9,2.3H1462.1z"/>
	</g>
	<g id="Group_38661" transform="translate(7.493 23.125)">
		<g id="Group_38659" transform="translate(617.756 2140) rotate(45)">
			<g>
				<defs>
					
						<rect id="SVGID_1_" x="1.3" y="-1.3" transform="matrix(0.7071 -0.7071 0.7071 0.7071 -13.0217 33.2749)" width="64.7" height="67.3"/>
				</defs>
				<clipPath id="SVGID_00000042722102305476774340000004761119762265075111_">
					<use xlink:href="#SVGID_1_"  style="overflow:visible;"/>
				</clipPath>
				
					<g id="Group_38660" transform="translate(0)" style="clip-path:url(#SVGID_00000042722102305476774340000004761119762265075111_);">
					<g id="Path_42416">
						<path class="st7" d="M24.8,39.2c-7.9,0-14.4-6.5-14.4-14.4s6.5-14.4,14.4-14.4s14.4,6.5,14.4,14.4c0,1-0.1,2.1-0.3,3.1
							c-0.1,0.2-0.3,0.4-0.5,0.3C38.1,28.2,38,28,38,27.7l0,0c1.6-7.3-3-14.5-10.3-16.2s-14.5,3-16.2,10.3c-0.3,1.2-0.4,2.5-0.3,3.8
							c0.5,7.5,6.9,13.1,14.4,12.7c2.5-0.2,4.8-1,6.9-2.4c0.2-0.1,0.5-0.1,0.6,0.1s0.1,0.5-0.1,0.6l0,0c-2.2,1.5-4.7,2.4-7.3,2.5
							C25.4,39.2,25.1,39.2,24.8,39.2"/>
						<path class="st7" d="M33.4,36.9c0,0-0.1,0.1-0.1,0.1c-2.2,1.5-4.8,2.5-7.6,2.6c-0.3,0-0.6,0-0.9,0v-0.9c0,0,0,0,0,0l0,0.9
							c-4,0-7.7-1.6-10.5-4.4c-2.8-2.8-4.3-6.6-4.3-10.5c0-4,1.6-7.7,4.4-10.5c0,0,0,0,0,0c2.8-2.8,6.6-4.3,10.5-4.3
							c4,0,7.7,1.6,10.5,4.4c2.8,2.8,4.3,6.6,4.3,10.5c0,1.1-0.1,2.1-0.3,3.2c-0.1,0.5-0.6,0.8-1.1,0.7c-0.2-0.1-0.4-0.2-0.6-0.4
							c-0.1-0.2-0.2-0.5-0.1-0.7c0.8-3.4,0.1-6.9-1.7-9.8c-1.9-2.9-4.8-5-8.2-5.7c-7-1.6-14,2.9-15.6,9.9c-0.3,1.2-0.4,2.4-0.3,3.6
							c0.2,3.5,1.8,6.7,4.4,9c2.6,2.3,6,3.5,9.5,3.2c2.4-0.1,4.7-0.9,6.6-2.3c0.4-0.3,1-0.2,1.3,0.2c0.1,0.2,0.2,0.5,0.1,0.7
							C33.6,36.6,33.5,36.8,33.4,36.9z"/>
					</g>
					<g id="Path_42417">
						<path class="st7" d="M24.8,47.9c-12.7,0-23.1-10.3-23-23.1s10.3-23.1,23.1-23c12.7,0,23.1,10.3,23,23.1c0,4-1.1,8-3.1,11.5
							c-0.1,0.2-0.4,0.3-0.6,0.1c-0.2-0.1-0.3-0.4-0.2-0.6c6.1-10.6,2.5-24.2-8.2-30.3S11.7,3.1,5.5,13.7s-2.5,24.2,8.2,30.3
							c7.5,4.3,16.7,3.9,23.8-1c0.2-0.1,0.5-0.1,0.6,0.1s0.1,0.5-0.1,0.6l0,0c-3.5,2.4-7.6,3.9-11.8,4.1
							C25.7,47.8,25.3,47.9,24.8,47.9"/>
						<path class="st7" d="M38.4,44c0,0-0.1,0.1-0.1,0.1c-3.6,2.5-7.7,3.9-12,4.2c-0.5,0-1,0-1.5,0l0,0c0,0,0,0,0,0
							c-6.3,0-12.2-2.5-16.7-6.9C3.7,37,1.2,31.1,1.2,24.8c0-6.3,2.5-12.2,6.9-16.6c0,0,0,0,0,0c4.5-4.4,10.4-6.9,16.7-6.9
							c6.3,0,12.2,2.5,16.7,6.9c4.4,4.5,6.9,10.4,6.9,16.7c0,4.1-1.1,8.2-3.1,11.7C45,37,44.4,37.1,44,36.9
							c-0.4-0.3-0.6-0.8-0.3-1.2c6-10.4,2.4-23.7-8-29.7C25.2,0,11.9,3.6,6,14c-6,10.4-2.4,23.7,8,29.7c7.3,4.2,16.4,3.8,23.3-1
							c0.2-0.1,0.4-0.2,0.7-0.2c0.2,0,0.5,0.2,0.6,0.4c0.1,0.2,0.2,0.4,0.2,0.7C38.6,43.7,38.6,43.9,38.4,44z"/>
					</g>
					<g id="Path_42418">
						<path class="st8" d="M24.4,18.7c3.3-0.2,6.2,2.3,6.4,5.7c0.2,3.3-2.3,6.2-5.7,6.4s-6.2-2.3-6.4-5.7c0,0,0,0,0,0
							C18.5,21.8,21.1,18.9,24.4,18.7"/>
					</g>
					<g id="Path_42419">
						<path class="st7" d="M24.8,31.3c-3.6,0-6.5-2.9-6.5-6.5c0-1.6,0.6-3.1,1.6-4.3c2.4-2.7,6.5-2.9,9.2-0.6s2.9,6.5,0.6,9.2
							c-1.1,1.3-2.7,2.1-4.5,2.2C25.1,31.3,24.9,31.3,24.8,31.3 M24.4,19.2c-3.1,0.2-5.5,2.9-5.3,6c0.1,1.5,0.8,2.9,1.9,3.9
							c2.3,2.1,5.9,1.8,8-0.5c2.1-2.3,1.8-5.9-0.5-8C27.4,19.6,25.9,19.1,24.4,19.2 M24.4,18.7L24.4,18.7z"/>
						<path class="st7" d="M29.7,29.7c-1.2,1.2-2.8,1.9-4.5,2c-0.1,0-0.3,0-0.4,0l0,0c-1.9,0-3.6-0.7-4.9-2.1c-1.3-1.3-2-3.1-2-4.9
							c0-1.7,0.6-3.3,1.7-4.6c1.2-1.4,2.9-2.2,4.8-2.4c1.9-0.1,3.7,0.5,5.1,1.7c1.4,1.2,2.2,2.9,2.4,4.8c0.1,1.9-0.5,3.7-1.7,5.1
							C29.9,29.5,29.8,29.6,29.7,29.7z M21.2,21.2c-0.1,0.1-0.2,0.2-0.2,0.2c-0.9,1-1.4,2.4-1.3,3.7c0.1,1.4,0.7,2.6,1.7,3.5
							c1,0.9,2.4,1.4,3.7,1.3c1.4-0.1,2.6-0.7,3.5-1.7c0.9-1,1.4-2.4,1.3-3.7c-0.1-1.4-0.7-2.6-1.7-3.5c-1-0.9-2.3-1.4-3.7-1.3l0,0
							C23.2,19.7,22,20.3,21.2,21.2z"/>
					</g>
					<g id="Path_42420">
						<path class="st8" d="M65.1,51.3c0.6-3.9-7-15-9.2-16.2c-1.3-0.7-3.4,1-2.8,2.5c-0.8-1.1-2.2-1.7-3.5-1.3
							c-0.8,0.3-1.2,1.1-1.2,1.9c-0.9-0.5-2-1.1-3-0.7c-1,0.6-1.5,1.7-1.4,2.8c-6.7-9.9-8.3-12.9-10.1-11.7
							c-3,1.9,4.4,11.1,10.1,21.2c0.4,0.6,0.6,1.3,0.9,2c-0.6-0.2-2.6-1.7-8.6-0.8c-1.7,0.3-4.2,2.4-3.2,2.9c1.9,0.8,3,0.7,5.2,1.1
							c4.1,0.8,9.9,5.9,11.8,6.3C52.8,62.5,63.4,61.6,65.1,51.3"/>
					</g>
					<g id="Path_42421">
						<path class="st7" d="M52.7,62.1c-1,0-1.9-0.1-2.8-0.5c-1.4-0.6-2.7-1.3-3.9-2.2c-2.4-1.6-5.5-3.6-7.8-4.1
							c-0.7-0.1-1.3-0.2-1.9-0.3c-1.2-0.1-2.3-0.4-3.4-0.8c-0.3-0.1-0.5-0.5-0.5-0.8c0.1-1,2.3-2.6,3.8-2.9c4.4-0.7,6.7-0.1,7.9,0.4
							c-0.2-0.4-0.4-0.8-0.5-1c-1.6-2.8-3.3-5.5-4.9-8c-4.4-7-7.6-12.1-5-13.7c1.2-0.8,2.3,0.1,3.2,1.1c1.8,2.2,3.5,4.6,5,7
							c0.6,0.9,1.2,1.8,1.9,2.8c0.2-0.9,0.7-1.6,1.5-2c1-0.3,2-0.1,2.8,0.4c0.1-0.8,0.6-1.4,1.3-1.7c1.1-0.3,2.4-0.1,3.3,0.7
							c0.2-0.5,0.5-1,0.9-1.4c0.7-0.7,1.7-0.9,2.6-0.5c2.2,1.2,10.1,12.4,9.4,16.6c-0.5,3.9-2.9,7.3-6.4,9.1
							C57.2,61.6,55,62.1,52.7,62.1 M33.3,53.5c1,0.4,2,0.7,3.1,0.7c0.6,0.1,1.2,0.1,2,0.3c2.5,0.5,5.6,2.5,8.1,4.2
							c1.1,0.8,2.4,1.5,3.7,2.1c0,0,0.1,0,0.1,0c1.4,0.7,5.2,0.6,8.6-1.1c3.2-1.7,5.4-4.9,5.9-8.5c0.6-3.6-6.8-14.5-9-15.7
							c-0.6-0.2-1.2-0.1-1.6,0.4c-0.5,0.4-0.7,1-0.6,1.6c0.1,0.2,0,0.5-0.2,0.5c-0.2,0.1-0.4,0-0.5-0.2c-0.7-1-1.9-1.4-3-1.2
							c-0.6,0.2-0.8,0.7-0.9,1.6c0,0.2-0.2,0.4-0.5,0.4c-0.1,0-0.1,0-0.2-0.1c-1-0.5-1.9-1-2.6-0.7c-0.8,0.5-1.2,1.5-1.1,2.4
							c0,0.2-0.2,0.4-0.4,0.4c-0.1,0-0.3-0.1-0.4-0.2c-0.9-1.4-1.8-2.6-2.5-3.7c-4.6-6.8-5.8-8.6-7-7.9c-1.8,1.1,1.6,6.7,5.3,12.5
							c1.6,2.6,3.3,5.3,4.9,8.1c0.4,0.7,0.7,1.4,0.9,2.2c0,0.2-0.2,0.4-0.4,0.5c-0.1,0-0.1,0-0.2,0c-0.1,0-0.2-0.1-0.3-0.2
							c-0.8-0.4-2.9-1.4-8-0.6C35.1,51.7,34,52.5,33.3,53.5 M65.1,51.3L65.1,51.3z"/>
						<path class="st7" d="M62.2,58.5c-0.9,0.9-1.8,1.6-2.9,2.2c-2,1.1-4.3,1.6-6.5,1.6v0c-1,0-2-0.1-2.9-0.5
							c-1.4-0.6-2.7-1.3-4-2.2c-2.4-1.6-5.4-3.6-7.8-4c-0.7-0.1-1.3-0.2-1.9-0.3c-1.2-0.1-2.3-0.4-3.4-0.8c-0.4-0.2-0.6-0.6-0.6-1
							c0.1-1.1,2.3-2.7,3.9-3c3.1-0.5,5.7-0.4,7.6,0.3c-0.1-0.3-0.3-0.5-0.3-0.7c-1.6-2.8-3.2-5.4-4.8-7.9l-0.1-0.1
							c-4.5-7.1-7.7-12.2-5-13.9c1.3-0.8,2.5,0.2,3.4,1.1c1.8,2.2,3.5,4.6,5,7c0.5,0.8,1.1,1.6,1.7,2.5c0.2-0.8,0.8-1.4,1.5-1.8
							c1-0.3,2-0.2,2.8,0.3c0.2-0.7,0.7-1.3,1.4-1.6c1.1-0.3,2.3-0.1,3.2,0.6c0.2-0.5,0.5-0.9,0.9-1.2c0,0,0,0,0,0
							c0.7-0.7,1.8-0.9,2.7-0.5c2.2,1.2,10.2,12.5,9.5,16.8C65.3,54.1,64.1,56.6,62.2,58.5z M52.7,62c2.2,0,4.4-0.6,6.4-1.6
							c3.4-1.8,5.8-5.2,6.3-9c0.7-4.2-7.1-15.3-9.3-16.5c-0.8-0.4-1.8-0.2-2.4,0.5c0,0,0,0,0,0c-0.4,0.3-0.7,0.8-0.8,1.3l-0.1,0.2
							l-0.2-0.1c-0.9-0.7-2.1-0.9-3.1-0.6c-0.6,0.3-1.1,0.8-1.2,1.5l0,0.2L48,37.7c-0.8-0.5-1.8-0.7-2.7-0.4
							c-0.7,0.4-1.2,1.1-1.4,1.9l-0.1,0.4l-0.2-0.3c-0.7-1-1.3-1.9-1.9-2.8c-1.5-2.4-3.2-4.8-5-7c-0.9-1-1.8-1.8-3-1.1
							c-2.4,1.5,0.7,6.5,5.1,13.5l0.1,0.1c1.6,2.6,3.3,5.2,4.8,7.9c0.1,0.2,0.3,0.6,0.5,1l0.2,0.3L44,51.2c-1.9-0.8-4.5-0.9-7.8-0.4
							c-1.4,0.2-3.5,1.8-3.7,2.7c0,0.3,0.1,0.6,0.4,0.7c1.1,0.5,2.2,0.7,3.3,0.8c0.6,0.1,1.2,0.1,1.9,0.3c2.4,0.5,5.4,2.5,7.9,4.1
							c1.2,0.9,2.5,1.6,3.9,2.2C50.9,61.9,51.8,62,52.7,62l0,0.2L52.7,62z M61.6,57.9c-0.8,0.8-1.7,1.5-2.7,2
							c-3.4,1.8-7.2,1.8-8.7,1.1c0,0,0,0-0.1,0c-1.3-0.6-2.6-1.3-3.7-2.1c-2.5-1.6-5.6-3.7-8.1-4.1c-0.8-0.1-1.4-0.2-2-0.3
							c-1.1-0.1-2.1-0.3-3.1-0.8l0.1-0.1l-0.1-0.1c0.7-1.1,1.9-1.9,3.2-2.1c5.2-0.8,7.3,0.2,8.1,0.6c0.1,0.1,0.2,0.1,0.3,0.2
							c0,0,0.1,0,0.1,0c0.2,0,0.3-0.1,0.3-0.3c-0.2-0.7-0.5-1.4-0.9-2.1c-1.6-2.8-3.2-5.4-4.8-8l0-0.1c-3.9-6.2-7.2-11.5-5.3-12.7
							c1.3-0.8,2.5,0.8,7.2,7.9l0.7,1c0.6,0.8,1.2,1.7,1.8,2.7c0.1,0.1,0.1,0.1,0.2,0.1c0.2,0,0.3-0.1,0.3-0.3c-0.1-1,0.4-2,1.2-2.5
							c0.8-0.4,1.8,0.1,2.8,0.7c0,0,0.1,0,0.1,0c0.1,0,0.1,0,0.2-0.1c0.1,0,0.1-0.1,0.1-0.2c0.1-1,0.4-1.4,1-1.7
							c1.2-0.3,2.5,0.2,3.2,1.2c0.1,0.1,0.2,0.2,0.3,0.1c0.1,0,0.1-0.1,0.2-0.1c0-0.1,0-0.1,0-0.2c-0.2-0.7,0.1-1.4,0.7-1.8
							c0.4-0.5,1.1-0.6,1.8-0.4c2.3,1.2,9.7,12.3,9.1,15.9C64.5,53.8,63.4,56.1,61.6,57.9z M33.5,53.5c0.9,0.4,1.9,0.6,2.9,0.7
							c0.6,0.1,1.2,0.2,2,0.3c2.5,0.5,5.7,2.6,8.2,4.2c1.1,0.8,2.4,1.5,3.6,2.1c0,0,0.1,0,0.1,0c1.4,0.7,5.1,0.6,8.4-1.1
							c3.2-1.7,5.4-4.8,5.8-8.4c0.3-1.5-1-4.8-3.4-8.7c-2.1-3.4-4.4-6.3-5.5-6.9c-0.5-0.2-1,0-1.4,0.3c0,0,0,0,0,0
							c-0.5,0.4-0.7,0.9-0.6,1.5c0,0.1,0,0.3,0,0.4c-0.1,0.1-0.2,0.2-0.3,0.3c-0.3,0.1-0.5,0-0.7-0.2c-0.6-0.9-1.8-1.4-2.9-1.1
							c-0.5,0.2-0.7,0.6-0.8,1.4c0,0.2-0.1,0.3-0.2,0.4c-0.1,0.1-0.3,0.1-0.4,0.1c-0.1,0-0.2,0-0.2-0.1c-0.9-0.5-1.8-1-2.5-0.7
							c-0.7,0.5-1.1,1.4-1,2.3c0,0.3-0.2,0.6-0.5,0.6c-0.2,0-0.4-0.1-0.5-0.3c-0.7-1-1.3-1.9-1.8-2.7L41,37
							c-4.4-6.6-5.8-8.5-6.8-7.8c-1.7,1.1,1.9,6.8,5.4,12.3l0,0.1c1.6,2.6,3.3,5.2,4.9,8c0.4,0.7,0.7,1.4,0.9,2.2
							c0,0.3-0.2,0.6-0.5,0.7c-0.1,0-0.2,0-0.2,0c-0.1,0-0.2-0.1-0.4-0.2c-0.8-0.4-2.9-1.4-7.9-0.6C35.2,51.9,34.2,52.5,33.5,53.5z"
							/>
					</g>
					<g id="Path_42422">
						<path class="st7" d="M45.5,43.1c-0.1,0-0.3-0.1-0.4-0.2l-1.8-2.7c-0.1-0.2-0.1-0.5,0.2-0.6c0.2-0.1,0.4-0.1,0.5,0.1l1.8,2.7
							c0.1,0.2,0.1,0.5-0.1,0.6C45.6,43,45.6,43.1,45.5,43.1"/>
						<path class="st7" d="M45.9,43.1C45.9,43.1,45.8,43.1,45.9,43.1c-0.2,0.1-0.3,0.2-0.4,0.2v0c-0.2,0-0.4-0.1-0.5-0.3l-1.8-2.7
							c-0.2-0.3-0.1-0.6,0.2-0.8c0.2-0.1,0.6-0.1,0.7,0.1l1.8,2.7C46.1,42.6,46.1,42.9,45.9,43.1z M45.5,42.9c0.1,0,0.1,0,0.1,0
							c0.1,0,0.1-0.1,0.1-0.2c0-0.1,0-0.1,0-0.2l-1.8-2.7c-0.1-0.1-0.2-0.1-0.3-0.1c-0.1,0.1-0.2,0.2-0.1,0.4l1.8,2.7
							C45.3,42.9,45.4,42.9,45.5,42.9L45.5,42.9z"/>
					</g>
					<g id="Path_42423">
						<path class="st7" d="M49.4,40.2c-0.2,0-0.3-0.1-0.4-0.2c-0.3-0.6-0.7-1.2-1.3-1.6c-0.2-0.1-0.2-0.4-0.1-0.6
							c0.1-0.2,0.4-0.2,0.6-0.1c0.6,0.5,1.2,1.2,1.5,1.9c0.1,0.2,0,0.5-0.2,0.6c0,0,0,0,0,0C49.6,40.2,49.5,40.2,49.4,40.2"/>
						<path class="st7" d="M49.8,40.2c0,0-0.1,0.1-0.2,0.1c-0.1,0-0.2,0.1-0.2,0.1v0c-0.2,0-0.4-0.1-0.5-0.3
							c-0.3-0.6-0.7-1.1-1.2-1.5c-0.2-0.2-0.3-0.5-0.1-0.8c0.2-0.3,0.5-0.3,0.8-0.1c0.7,0.5,1.2,1.2,1.6,2c0.1,0.1,0.1,0.3,0,0.4
							C49.9,40.1,49.9,40.2,49.8,40.2z M49.4,40.1c0,0,0.1,0,0.1,0c0.1-0.1,0.2-0.2,0.1-0.4c-0.4-0.7-0.9-1.3-1.5-1.9
							c-0.1-0.1-0.3-0.1-0.4,0.1c-0.1,0.1-0.1,0.3,0.1,0.4c0.6,0.5,1,1,1.3,1.6C49.2,40,49.3,40.1,49.4,40.1L49.4,40.1z"/>
					</g>
				</g>
			</g>
		</g>
		<g id="Rectangle_16000">
			<rect x="580" y="2148" class="st9" width="76" height="76"/>
		</g>
	</g>
	<g id="Group_38663" transform="translate(201.046 20.474)">
		<g id="Rectangle_16000-2">
			<rect x="580" y="2148" class="st9" width="76" height="76"/>
		</g>
		<g id="Group_38665" transform="translate(591.879 2150.586)">
			<g>
				<defs>
					<rect id="SVGID_00000140706046989687661510000004969336902988270248_" x="-2" y="-2" width="57.6" height="76.2"/>
				</defs>
				<clipPath id="SVGID_00000025412361954402639360000000131684434619026363_">
					<use xlink:href="#SVGID_00000140706046989687661510000004969336902988270248_"  style="overflow:visible;"/>
				</clipPath>
				<g id="Group_38665-2" style="clip-path:url(#SVGID_00000025412361954402639360000000131684434619026363_);">
					<g id="Path_42424">
						<path class="st7" d="M33.2,10.9c0,0-0.1,0-0.1,0c-0.3,0-0.5-0.2-0.5-0.5C32.3,1.7,29.1,1,25.8,1c-1.6,0-3.1,0.9-4,2.2
							c-1.4,2.1-2,4.7-1.6,7.2c0,0.3-0.1,0.5-0.4,0.6s-0.5-0.1-0.6-0.4c-0.4-2.8,0.3-5.6,1.8-8C22.1,1,23.9,0,25.8,0
							c3.8,0,7.4,1.3,7.8,10.4C33.6,10.6,33.4,10.8,33.2,10.9"/>
						<path class="st7" d="M19.7,11.2c-0.1,0-0.3,0-0.4-0.1c-0.1-0.1-0.2-0.3-0.3-0.4c-0.4-2.8,0.3-5.7,1.8-8.1
							c1.1-1.6,3-2.6,4.9-2.7c3.9,0,7.5,1.3,7.9,10.5c0,0.3-0.2,0.6-0.5,0.6h0c0,0-0.1,0-0.1,0c-0.2,0-0.3-0.1-0.5-0.2
							c-0.1-0.1-0.2-0.3-0.2-0.4c-0.3-8.6-3.5-9.3-6.6-9.3c-1.6,0-3,0.8-3.9,2.1c-1.4,2.1-1.9,4.6-1.6,7.1
							C20.4,10.8,20.2,11.1,19.7,11.2C19.8,11.2,19.7,11.2,19.7,11.2z M25.8,0.2c-1.9,0-3.6,1-4.7,2.5C19.6,5,19,7.8,19.4,10.6
							c0,0.1,0.1,0.2,0.1,0.2c0.1,0.1,0.2,0.1,0.3,0.1c0.1,0,0.2-0.1,0.2-0.1s0.1-0.2,0.1-0.3c-0.4-2.6,0.2-5.2,1.6-7.3
							c0.9-1.4,2.5-2.3,4.1-2.3c3.3,0,6.6,0.7,6.9,9.6c0,0.2,0.2,0.3,0.4,0.3c0,0,0.1,0,0.1,0c0.2,0,0.3-0.2,0.2-0.3
							C33.1,1.4,29.6,0.2,25.8,0.2z"/>
					</g>
					<g id="Rectangle_16002">
						<rect x="0.5" y="8.1" class="st8" width="52.6" height="63.6"/>
						<path class="st11" d="M53.6,72.2H0V7.6h53.6V72.2z M1,71.2h51.6V8.6H1V71.2z"/>
					</g>
					<g id="Path_42425">
						<path class="st7" d="M53.2,72.2c0,0-0.1,0-0.1,0l-52.6,0c-0.1,0-0.3-0.1-0.3-0.1C0.1,71.9,0,71.8,0,71.7L0,8.1
							c0-0.3,0.2-0.5,0.5-0.5c0,0,0,0,0,0l52.6,0c0.3,0,0.5,0.2,0.5,0.5c0,0,0,0,0,0l0,63.6C53.6,71.9,53.4,72.1,53.2,72.2 M1,71.2
							l51.6,0l0-62.6L1,8.6L1,71.2z"/>
						<path class="st7" d="M53.1,72.3l-52.6,0c0,0,0,0,0,0c-0.2,0-0.3-0.1-0.5-0.2c-0.1-0.1-0.2-0.3-0.2-0.5l0-63.6
							c0-0.4,0.3-0.6,0.6-0.6l52.6,0c0.4,0,0.6,0.3,0.6,0.6l0,63.6c0,0.3-0.2,0.5-0.5,0.6l0-0.1l0,0.1
							C53.2,72.3,53.1,72.3,53.1,72.3z M0.5,72l52.6,0c0,0,0.1,0,0.1,0l0,0c0.1,0,0.2-0.2,0.2-0.3l0-63.6c0-0.2-0.2-0.3-0.3-0.3
							l-52.6,0c-0.2,0-0.3,0.2-0.3,0.3l0,63.6c0,0.1,0,0.2,0.1,0.2C0.3,72,0.4,72,0.5,72C0.5,72,0.5,72,0.5,72z M52.6,71.3L1,71.3
							l-0.1-0.2l0-62.6L1,8.4l51.6,0l0.1,0.2l0,62.6L52.6,71.3z M1.1,71l51.3,0l0-62.3l-51.3,0L1.1,71z"/>
					</g>
					<g id="Path_42426">
						<path class="st8" d="M40.7,6.1C38.9,6,14.1,5.9,12,6c0,6.6,2.5,7.7,8.3,7.9c9.2,0.3,14.8,0.3,17.1-0.8
							C40.5,11.8,41.2,9.2,40.7,6.1"/>
					</g>
					<g id="Path_42427">
						<path class="st7" d="M36.8,13.9c-2.8,0.8-8.3,0.8-16.5,0.5c-6.1-0.2-8.8-1.5-8.8-8.4c0-0.3,0.2-0.5,0.5-0.5
							c1.9-0.1,26.9,0,28.7,0.1c0.2,0,0.4,0.2,0.5,0.4c0.6,3.7-0.6,6.3-3.5,7.5C37.5,13.7,37.2,13.8,36.8,13.9 M12.5,6.5
							c0.1,5.7,2.1,6.7,7.9,6.9c9,0.3,14.7,0.3,16.9-0.7c2.4-1.1,3.4-3.1,3-6.1C36.8,6.5,16.3,6.4,12.5,6.5"/>
						<path class="st7" d="M28.4,14.7c-2.3,0-5-0.1-8-0.2c-6.2-0.2-9-1.5-9-8.5c0-0.4,0.3-0.6,0.6-0.6c1.9-0.1,26.9,0,28.7,0.1
							c0.3,0,0.6,0.2,0.6,0.5c0.6,3.7-0.6,6.4-3.6,7.7c-0.3,0.1-0.6,0.2-0.9,0.3l0,0C35.1,14.5,32.3,14.7,28.4,14.7z M17.6,5.6
							c-2.9,0-5,0-5.6,0c-0.2,0-0.3,0.2-0.3,0.3c0,6.8,2.7,8,8.7,8.2c8.1,0.3,13.6,0.3,16.4-0.5l0,0.1l0-0.1
							c0.3-0.1,0.6-0.2,0.9-0.3c2.8-1.3,4-3.8,3.4-7.4c0-0.2-0.2-0.3-0.3-0.3C39.4,5.7,25.6,5.6,17.6,5.6z M28.5,13.7
							c-2.3,0-5-0.1-8.1-0.2c-5.8-0.2-7.9-1.3-8-7.1l0.2,0l0-0.1c3.7,0,24.3,0,27.8,0.1l0.1,0.1c0.4,3.1-0.6,5.2-3,6.2
							C35.9,13.5,32.9,13.7,28.5,13.7z M12.7,6.6c0.1,5.4,2.1,6.4,7.7,6.6c9,0.3,14.6,0.3,16.9-0.7c2.3-1,3.2-2.9,2.9-5.8
							C36.4,6.6,16.7,6.6,12.7,6.6z"/>
					</g>
					<g id="Path_42428">
						<path class="st7" d="M44.3,32.2C44.3,32.2,44.2,32.2,44.3,32.2l-25.5,0c-0.1,0-0.2-0.1-0.2-0.2c0-0.1,0.1-0.2,0.2-0.2l25.4,0
							c0.1,0,0.2,0.1,0.2,0.2C44.4,32.1,44.3,32.2,44.3,32.2"/>
						<path class="st7" d="M44.2,32.7l-25.4,0c-0.4,0-0.7-0.3-0.7-0.7c0-0.4,0.3-0.7,0.7-0.7l25.4,0c0.4,0,0.7,0.3,0.7,0.7
							c0,0.3-0.2,0.6-0.5,0.6l0-0.1l0,0.1L44.2,32.7z"/>
					</g>
					<g id="Path_42429">
						<path class="st7" d="M44.3,42C44.2,42,44.2,42,44.3,42l-25.5,0c-0.1,0-0.2-0.1-0.2-0.2s0.1-0.2,0.2-0.2c0,0,0,0,0,0l25.4,0
							c0.1,0,0.2,0.1,0.2,0.2C44.4,41.9,44.3,42,44.3,42"/>
						<path class="st7" d="M44.2,42.5l-25.4,0c-0.2,0-0.3-0.1-0.5-0.2s-0.2-0.3-0.2-0.5c0-0.2,0.1-0.3,0.2-0.5s0.3-0.2,0.5-0.2
							l25.4,0c0.2,0,0.3,0.1,0.5,0.2c0.1,0.1,0.2,0.3,0.2,0.5c0,0.3-0.2,0.6-0.5,0.6l0-0.1l0,0.1L44.2,42.5z M18.8,41.5
							C18.8,41.5,18.8,41.5,18.8,41.5L18.8,41.5C18.8,41.5,18.8,41.5,18.8,41.5z"/>
					</g>
					<g id="Path_42430">
						<path class="st7" d="M44.3,51.8C44.2,51.8,44.2,51.8,44.3,51.8l-25.5,0c-0.1,0-0.2-0.1-0.2-0.2c0-0.1,0.1-0.2,0.2-0.2
							c0,0,0,0,0,0l25.4,0c0.1,0,0.2,0.1,0.2,0.2C44.4,51.8,44.3,51.8,44.3,51.8"/>
						<path class="st7" d="M44.2,52.3l-25.4,0c-0.3,0-0.6-0.2-0.7-0.6c0-0.4,0.2-0.7,0.6-0.7l25.5,0c0.2,0,0.3,0.1,0.5,0.2
							s0.2,0.3,0.2,0.5c0,0.3-0.2,0.6-0.5,0.6v0L44.2,52.3z M18.8,51.3C18.8,51.3,18.8,51.3,18.8,51.3L18.8,51.3
							C18.8,51.3,18.8,51.3,18.8,51.3z"/>
					</g>
					<g id="Path_42431">
						<path class="st7" d="M11.3,33.6c0,0-0.1,0-0.1,0c-0.2,0-0.3-0.1-0.4-0.2l-2.4-3.2c-0.2-0.2-0.1-0.5,0.1-0.7
							c0.2-0.1,0.5-0.1,0.7,0.1l2,2.7l2.4-3.4c0.2-0.2,0.5-0.2,0.7-0.1c0.2,0.2,0.2,0.4,0.1,0.6l-2.8,4
							C11.5,33.5,11.4,33.6,11.3,33.6"/>
					</g>
					<g id="Path_42432">
						<path class="st7" d="M11.3,43.9c0,0-0.1,0-0.1,0c-0.2,0-0.3-0.1-0.4-0.2l-2.4-3.2c-0.2-0.2-0.1-0.5,0.1-0.7
							c0.2-0.1,0.5-0.1,0.7,0.1l2,2.7l2.4-3.4c0.1-0.2,0.4-0.3,0.7-0.2c0.2,0.1,0.3,0.4,0.2,0.7c0,0,0,0,0,0.1l-2.8,4
							C11.5,43.8,11.4,43.8,11.3,43.9"/>
					</g>
					<g id="Path_42433">
						<path class="st7" d="M11.3,54.1c0,0-0.1,0-0.1,0c-0.2,0-0.3-0.1-0.4-0.2l-2.4-3.2c-0.2-0.2-0.1-0.5,0.1-0.7
							c0.2-0.2,0.5-0.1,0.7,0.1l2,2.7l2.4-3.4c0.1-0.2,0.4-0.3,0.7-0.2c0.2,0.1,0.3,0.4,0.2,0.7c0,0,0,0,0,0.1l-2.8,4
							C11.5,54,11.4,54.1,11.3,54.1"/>
					</g>
				</g>
			</g>
		</g>
	</g>
	<g id="Group_38664" transform="translate(392.672 23.125)">
		<g id="Rectangle_16000-3">
			<rect x="580" y="2148" class="st9" width="76" height="76"/>
		</g>
		<g id="Group_38666" transform="translate(580 2145.349)">
			<g id="Rectangle_16004">
				
					<rect x="34.8" y="73.4" transform="matrix(0.9995 -3.285864e-02 3.285864e-02 0.9995 -2.4503 1.3137)" class="st7" width="8" height="3.7"/>
			</g>
			<g id="Group_38667">
				<g>
					<defs>
						<rect id="SVGID_00000172403004584660474120000001472309184335307657_" x="0" y="0" width="76.1" height="77.7"/>
					</defs>
					<clipPath id="SVGID_00000145767095763053292020000016469842166117320362_">
						<use xlink:href="#SVGID_00000172403004584660474120000001472309184335307657_"  style="overflow:visible;"/>
					</clipPath>
					<g id="Group_38666-2" style="clip-path:url(#SVGID_00000145767095763053292020000016469842166117320362_);">
						<g id="Path_42434">
							<path class="st7" d="M34.7,77.7c-0.2,0-0.4-0.2-0.4-0.5l-0.1-3.7c0-0.3,0.2-0.5,0.5-0.5l8-0.3c0.3,0,0.5,0.2,0.5,0.5l0.1,3.7
								c0,0.3-0.2,0.5-0.5,0.5c0,0,0,0,0,0l-8,0.3C34.8,77.7,34.8,77.7,34.7,77.7 M35.2,74l0.1,2.7l7-0.2l-0.1-2.7L35.2,74z"/>
						</g>
						<g id="Path_42435">
							<path class="st8" d="M57.8,36.2c-0.4-11.2-9.8-20-21-19.7c-11.2,0.4-20,9.8-19.7,21c0.2,5.4,2.5,10.5,6.4,14.2
								c4.3,4,7.6,6.7,7.8,12.6l14-0.5c-0.2-5.8,2.7-8.7,6.8-12.9C56,47,58,41.7,57.8,36.2"/>
						</g>
						<g id="Path_42436">
							<path class="st7" d="M31.3,64.8c-0.2,0-0.4-0.2-0.4-0.5c-0.2-5.3-3-7.9-6.8-11.5c-0.3-0.3-0.5-0.5-0.8-0.8
								c-8.4-7.9-8.8-21-1-29.4s21-8.8,29.4-1s8.8,21,1,29.4c-0.1,0.1-0.1,0.1-0.2,0.2l-0.4,0.4c-3.9,4-6.4,6.7-6.2,12.1
								c0,0.1,0,0.3-0.1,0.4c-0.1,0.1-0.2,0.2-0.3,0.2l-14,0.5C31.3,64.8,31.3,64.8,31.3,64.8 M41.4,17.4c-1.7-0.3-3.4-0.4-5-0.3
								C25.4,17.7,17,27.1,17.7,38c0.3,5.1,2.5,9.9,6.3,13.4c0.3,0.3,0.6,0.5,0.8,0.8c3.8,3.5,6.7,6.3,7.1,11.7l13-0.4
								c0-5.5,2.7-8.4,6.5-12.4l0.4-0.4c7.6-7.9,7.3-20.5-0.6-28.1C48.5,19.9,45.1,18.2,41.4,17.4"/>
						</g>
						<g id="Path_42437">
							<path class="st8" d="M30.2,67.2L30,60.6l16.6-0.5l0.2,6.5c0.2,4.6-3.3,8.5-7.9,8.7c-4.6,0.2-8.5-3.3-8.7-7.9
								C30.2,67.4,30.2,67.3,30.2,67.2"/>
						</g>
						<g id="Path_42438">
							<path class="st7" d="M35.7,75.6c-3.4-0.7-5.8-3.6-5.9-7l-0.3-7.9c0-0.3,0.2-0.5,0.5-0.5c0,0,0,0,0,0l16.6-0.5
								c0.3,0,0.5,0.2,0.5,0.5l0.3,7.9c0.1,4.1-3.1,7.5-7.2,7.6l-2.8,0.1C36.8,75.8,36.2,75.7,35.7,75.6 M30.5,61.1l0.2,7.4
								c0.1,3.5,3.1,6.3,6.6,6.2c0,0,0,0,0,0l2.8-0.1c3.5-0.1,6.3-3.1,6.2-6.6c0,0,0,0,0,0l-0.2-7.4L30.5,61.1z"/>
						</g>
						<g id="Path_42439">
							<path class="st7" d="M31.9,63.7c-0.1,0-0.1-0.1-0.1-0.2c0-0.1,0.1-0.1,0.2-0.1L44.7,63c0.1,0,0.2,0.1,0.2,0.1
								c0,0.1-0.1,0.2-0.1,0.2c0,0,0,0,0,0L31.9,63.7C32,63.7,31.9,63.7,31.9,63.7"/>
						</g>
						<g id="Path_42440">
							<path class="st7" d="M31.3,44.1c-0.1,0-0.1-0.1-0.1-0.2c0-0.1,0.1-0.1,0.2-0.1l12.8-0.4c0.1,0,0.2,0.1,0.2,0.2
								c0,0.1-0.1,0.2-0.2,0.2L31.3,44.1C31.3,44.1,31.3,44.1,31.3,44.1"/>
						</g>
						<g id="Path_42441">
							<path class="st7" d="M36.4,8.8c-0.2,0-0.4-0.2-0.4-0.5l-0.3-7.9C35.8,0.2,36,0,36.2,0c0.3,0,0.5,0.2,0.5,0.5c0,0,0,0,0,0
								L37,8.3c0,0.3-0.2,0.5-0.5,0.5C36.5,8.9,36.5,8.9,36.4,8.8"/>
						</g>
						<g id="Path_42442">
							<path class="st7" d="M58.8,15.8c-0.3-0.1-0.4-0.3-0.4-0.6c0-0.1,0.1-0.2,0.1-0.2l5.4-5.7c0.2-0.2,0.5-0.2,0.7,0
								c0.2,0.2,0.2,0.5,0,0.7c0,0,0,0,0,0l-5.4,5.7C59.1,15.8,59,15.8,58.8,15.8"/>
						</g>
						<g id="Path_42443">
							<path class="st7" d="M67.6,34.9c-0.3-0.1-0.4-0.3-0.4-0.6c0-0.2,0.2-0.4,0.5-0.4l7.9-0.3c0.3,0,0.5,0.2,0.5,0.5
								s-0.2,0.5-0.5,0.5c0,0,0,0,0,0l-7.9,0.3C67.7,34.9,67.7,34.9,67.6,34.9"/>
						</g>
						<g id="Path_42444">
							<path class="st7" d="M15.8,17.2c-0.1,0-0.2-0.1-0.2-0.1l-5.7-5.4c-0.2-0.2-0.2-0.5,0-0.7c0.2-0.2,0.5-0.2,0.7,0l5.7,5.4
								c0.2,0.2,0.2,0.5,0,0.7C16.2,17.2,16,17.2,15.8,17.2"/>
						</g>
						<g id="Path_42445">
							<path class="st7" d="M0.4,37.2C0.1,37.1,0,36.8,0,36.6c0-0.2,0.2-0.4,0.5-0.4l7.9-0.3c0.3,0,0.5,0.2,0.5,0.5
								c0,0.3-0.2,0.5-0.5,0.5l-7.9,0.3C0.5,37.2,0.4,37.2,0.4,37.2"/>
						</g>
						<g id="Path_42446">
							<path class="st7" d="M35.2,60.6c-0.2,0-0.4-0.2-0.4-0.4c0-0.1-1.2-14.5-8-20.3c-0.2-0.2-0.2-0.5-0.1-0.7s0.5-0.2,0.7-0.1
								c0,0,0,0,0,0c7.1,6.1,8.3,20.4,8.3,21c0,0.3-0.2,0.5-0.5,0.5C35.3,60.6,35.2,60.6,35.2,60.6"/>
						</g>
						<g id="Path_42447">
							<path class="st7" d="M41.1,60.4c-0.2,0-0.4-0.2-0.4-0.5c0-0.6,0.2-15,6.9-21.5c0.2-0.2,0.5-0.2,0.7,0.1
								c0.2,0.2,0.2,0.5,0,0.6c-6.4,6.3-6.6,20.7-6.6,20.8C41.7,60.2,41.5,60.4,41.1,60.4C41.2,60.4,41.2,60.4,41.1,60.4
								C41.2,60.4,41.1,60.4,41.1,60.4"/>
						</g>
						<g id="Path_42448">
							<path class="st7" d="M27,39.8c-0.3-0.1-0.4-0.3-0.4-0.6c0-0.2,0.2-0.4,0.5-0.4c0.6,0,1-0.4,1.3-0.9c0.7-1.2,2.3-1.6,3.4-0.9
								c0.3,0.2,0.6,0.4,0.8,0.7c0.3,0.5,0.8,0.8,1.4,0.8c0.6,0,1-0.4,1.3-0.9c0.7-1.2,2.3-1.6,3.4-0.9c0.3,0.2,0.6,0.4,0.8,0.7
								c0.3,0.5,0.8,0.8,1.4,0.8c0.6,0,1-0.4,1.3-0.9c0.7-1.2,2.2-1.6,3.4-0.9c0.3,0.2,0.6,0.4,0.8,0.7c0.3,0.5,0.8,0.8,1.4,0.8
								c0.3,0,0.5,0.2,0.5,0.5c0,0.3-0.2,0.5-0.5,0.5c-0.8,0-1.6-0.4-2.1-1.1c-0.3-0.5-0.8-0.8-1.4-0.8c-0.6,0-1,0.4-1.3,0.9
								c-0.7,1.2-2.2,1.6-3.4,0.9c-0.3-0.2-0.6-0.4-0.8-0.7c-0.3-0.5-0.8-0.8-1.4-0.8c-0.6,0-1,0.4-1.3,0.9
								c-0.7,1.2-2.3,1.6-3.4,0.9c-0.3-0.2-0.6-0.4-0.8-0.7c-0.3-0.5-0.8-0.8-1.4-0.8c-0.6,0-1,0.4-1.3,0.9
								c-0.5,0.7-1.2,1.2-2.1,1.2C27.1,39.8,27.1,39.8,27,39.8"/>
						</g>
					</g>
				</g>
			</g>
		</g>
	</g>
	<g id="Group_38668" transform="translate(589.832 23.125)">
		<g id="Rectangle_16000-4">
			<rect x="580" y="2148" class="st9" width="76" height="76"/>
		</g>
		<g id="Group_38669" transform="translate(580 2148.585)">
			<g>
				<defs>
					<rect id="SVGID_00000082357136855249655360000014029715654282528412_" x="0" y="0" width="75.9" height="76.8"/>
				</defs>
				<clipPath id="SVGID_00000125563700692146874980000012180125345738764723_">
					<use xlink:href="#SVGID_00000082357136855249655360000014029715654282528412_"  style="overflow:visible;"/>
				</clipPath>
				<g id="Group_38669-2" style="clip-path:url(#SVGID_00000125563700692146874980000012180125345738764723_);">
					<g id="Path_42449">
						<path class="st8" d="M38,15.9c-1.2,12.3-7,27.6-18.9,31.9c10.8,4.3,14.1,10.6,15.1,15.7h7.6c1-5.1,4.3-11.3,15.1-15.7
							C45,43.5,39.2,28.1,38,15.9z"/>
						<path class="st7" d="M41.8,64.2h-7.6c-0.4,0-0.7-0.3-0.7-0.6c-1.3-6.8-6.1-11.7-14.7-15.1c-0.3-0.1-0.5-0.4-0.5-0.7
							c0-0.3,0.2-0.6,0.5-0.7c11.7-4.3,17.3-19.5,18.4-31.3c0-0.4,0.4-0.7,0.7-0.7s0.7,0.3,0.7,0.7c1.2,11.8,6.7,27,18.4,31.3
							c0.3,0.1,0.5,0.4,0.5,0.7c0,0.3-0.2,0.6-0.5,0.7c-8.5,3.4-13.3,8.3-14.7,15.1C42.4,64,42.1,64.2,41.8,64.2z M34.8,62.7h6.4
							c1.5-6.5,6.1-11.5,13.8-14.9C45.3,43.3,40,31.6,38,21.1c-2,10.6-7.3,22.2-17,26.7C28.7,51.3,33.3,56.3,34.8,62.7z"/>
					</g>
					<g id="Rectangle_16006">
						<path class="st7" d="M41.8,76.3h-7.6c-0.4,0-0.8-0.3-0.8-0.8V63.5c0-0.4,0.3-0.8,0.8-0.8h7.6c0.4,0,0.8,0.3,0.8,0.8v12.1
							C42.5,75.9,42.2,76.3,41.8,76.3z M34.9,74.8H41V64.2h-6.1V74.8z"/>
					</g>
					<g id="Line_1767">
						<path class="st7" d="M38,42.8c-0.4,0-0.8-0.3-0.8-0.8V15.9c0-0.4,0.3-0.8,0.8-0.8s0.8,0.3,0.8,0.8V42
							C38.7,42.5,38.4,42.8,38,42.8z"/>
					</g>
					<g id="Ellipse_1392">
						<path class="st7" d="M38,48.3c-1.8,0-3.2-1.5-3.2-3.2c0-1.8,1.5-3.2,3.2-3.2s3.2,1.5,3.2,3.2C41.2,46.8,39.8,48.3,38,48.3z
							 M38,43.3c-1,0-1.7,0.8-1.7,1.7c0,1,0.8,1.7,1.7,1.7s1.7-0.8,1.7-1.7C39.7,44.1,38.9,43.3,38,43.3z"/>
					</g>
					<g id="Path_42450">
						<path class="st7" d="M74.7,3.8c0,1.4-1.1,2.5-2.5,2.5s-2.5-1.1-2.5-2.5s1.1-2.5,2.5-2.5S74.7,2.4,74.7,3.8"/>
					</g>
					<g id="Ellipse_1393">
						<path class="st7" d="M72.2,6.9c-1.7,0-3.1-1.4-3.1-3.1s1.4-3.1,3.1-3.1s3.1,1.4,3.1,3.1S73.9,6.9,72.2,6.9z M72.2,1.9
							c-1,0-1.8,0.8-1.8,1.8s0.8,1.8,1.8,1.8S74,4.8,74,3.8S73.2,1.9,72.2,1.9z"/>
					</g>
					<g id="Path_42451">
						<path class="st7" d="M6.2,3.8c0,1.4-1.1,2.5-2.5,2.5S1.2,5.1,1.2,3.8s1.1-2.5,2.5-2.5S6.2,2.4,6.2,3.8"/>
					</g>
					<g id="Ellipse_1394">
						<path class="st7" d="M3.7,6.9C2,6.9,0.6,5.5,0.6,3.8S2,0.6,3.7,0.6S6.9,2,6.9,3.8S5.5,6.9,3.7,6.9z M3.7,1.9
							c-1,0-1.8,0.8-1.8,1.8s0.8,1.8,1.8,1.8s1.8-0.8,1.8-1.8S4.8,1.9,3.7,1.9z"/>
					</g>
					<g id="Path_42452">
						<path class="st7" d="M69.7,36.1c-0.4,0-0.7-0.3-0.7-0.7C69,18.3,55.1,4.4,38,4.4S6.9,18.3,6.9,35.5c0,0.4-0.3,0.7-0.7,0.7
							s-0.7-0.3-0.7-0.7C5.6,17.6,20.1,3.1,38,3.1s32.4,14.5,32.4,32.4C70.3,35.8,70,36.1,69.7,36.1z"/>
					</g>
					<g id="Line_1768">
						<path class="st7" d="M69.7,4.4H6.2c-0.4,0-0.7-0.3-0.7-0.7s0.3-0.7,0.7-0.7h63.4c0.4,0,0.7,0.3,0.7,0.7S70,4.4,69.7,4.4z"/>
					</g>
					<g id="Rectangle_16007">
						<rect x="35.5" y="1.3" class="st8" width="5" height="5"/>
					</g>
					<g id="Rectangle_16008">
						<path class="st7" d="M40.5,6.9h-5c-0.4,0-0.7-0.3-0.7-0.7v-5c0-0.4,0.3-0.7,0.7-0.7h5c0.4,0,0.7,0.3,0.7,0.7v5
							C41.1,6.6,40.8,6.9,40.5,6.9z M36.1,5.6h3.7V1.9h-3.7V5.6z"/>
					</g>
					<g id="Rectangle_16009">
						<rect x="3.7" y="35.5" class="st8" width="5" height="5"/>
					</g>
					<g id="Rectangle_16010">
						<path class="st7" d="M8.7,41.1h-5c-0.4,0-0.7-0.3-0.7-0.7v-5c0-0.4,0.3-0.7,0.7-0.7h5c0.4,0,0.7,0.3,0.7,0.7v5
							C9.4,40.8,9.1,41.1,8.7,41.1z M4.4,39.8h3.7v-3.7H4.4V39.8z"/>
					</g>
					<g id="Rectangle_16011">
						<rect x="67.2" y="35.5" class="st8" width="5" height="5"/>
					</g>
					<g id="Rectangle_16012">
						<path class="st7" d="M72.2,41.1h-5c-0.4,0-0.7-0.3-0.7-0.7v-5c0-0.4,0.3-0.7,0.7-0.7h5c0.4,0,0.7,0.3,0.7,0.7v5
							C72.8,40.8,72.5,41.1,72.2,41.1z M67.8,39.8h3.7v-3.7h-3.7V39.8z"/>
					</g>
				</g>
			</g>
		</g>
	</g>
	<g id="Group_38670" transform="translate(782.386 23.125)">
		<g id="Rectangle_16000-5">
			<rect x="580" y="2148" class="st9" width="76" height="76"/>
		</g>
		<g id="Group_38674" transform="translate(-1057.166 -26.683)">
			<g id="Path_42459">
				<path class="st8" d="M1673.6,2175.4l-38.1,19l38.1,19.8l39-19.3L1673.6,2175.4z"/>
			</g>
			<g id="Group_38672" transform="translate(1634 2174.684)">
				<g>
					<defs>
						<rect id="SVGID_00000014615121185142279200000013122093762048362920_" x="0" y="0" width="79.2" height="73.8"/>
					</defs>
					<clipPath id="SVGID_00000034080646580398733830000011606144504140515470_">
						<use xlink:href="#SVGID_00000014615121185142279200000013122093762048362920_"  style="overflow:visible;"/>
					</clipPath>
					<g id="Group_38671" style="clip-path:url(#SVGID_00000034080646580398733830000011606144504140515470_);">
						<g id="Path_42453">
							<path class="st7" d="M39.6,40.2c-0.1,0-0.2,0-0.3-0.1L0.4,20.7c-0.3-0.2-0.5-0.6-0.3-0.9c0.1-0.1,0.2-0.2,0.3-0.3L39.3,0.1
								c0.2-0.1,0.4-0.1,0.6,0l38.9,19.5c0.3,0.2,0.5,0.5,0.3,0.9c-0.1,0.1-0.2,0.2-0.3,0.3L39.9,40.2
								C39.8,40.2,39.7,40.2,39.6,40.2 M2.1,20.1l37.5,18.7l37.5-18.7L39.6,1.4L2.1,20.1z"/>
						</g>
						<g id="Path_42454">
							<path class="st7" d="M39.6,57c-0.1,0-0.2,0-0.3-0.1L0.4,37.5c-0.3-0.2-0.5-0.5-0.3-0.9c0.1-0.1,0.2-0.2,0.3-0.3l16.8-8.4
								c0.2-0.1,0.4-0.1,0.6,0l21.9,10.9l21.9-10.9c0.2-0.1,0.4-0.1,0.6,0l16.8,8.4c0.3,0.2,0.5,0.5,0.3,0.9
								c-0.1,0.1-0.2,0.2-0.3,0.3L39.9,57C39.8,57,39.7,57,39.6,57 M2.1,36.9l37.5,18.7l37.5-18.7l-15.3-7.7L39.9,40.2
								c-0.2,0.1-0.4,0.1-0.6,0L17.4,29.2L2.1,36.9z"/>
						</g>
						<g id="Path_42455">
							<path class="st7" d="M39.6,73.8c-0.1,0-0.2,0-0.3-0.1L0.4,54.3c-0.3-0.2-0.5-0.6-0.3-0.9c0.1-0.1,0.2-0.2,0.3-0.3l16.8-8.4
								c0.2-0.1,0.4-0.1,0.6,0l21.9,10.9l21.9-10.9c0.2-0.1,0.4-0.1,0.6,0l16.8,8.4c0.3,0.2,0.5,0.5,0.3,0.9
								c-0.1,0.1-0.2,0.2-0.3,0.3L39.9,73.7C39.8,73.8,39.7,73.8,39.6,73.8 M2.1,53.7l37.5,18.7l37.5-18.7L61.7,46L39.9,57
								c-0.2,0.1-0.4,0.1-0.6,0L17.4,46L2.1,53.7z"/>
						</g>
						<g id="Path_42456">
							<path class="st7" d="M10.7,25.5c-0.4,0-0.7-0.3-0.6-0.7c0-0.2,0.1-0.5,0.3-0.6l37.4-20c0.3-0.2,0.7-0.1,0.9,0.3
								c0.2,0.3,0.1,0.7-0.3,0.9L11,25.5C10.9,25.5,10.8,25.5,10.7,25.5"/>
						</g>
						<g id="Path_42457">
							<path class="st7" d="M20.1,30.4c-0.4,0-0.7-0.3-0.6-0.7c0-0.2,0.1-0.5,0.3-0.6L57.6,9.5c0.3-0.2,0.7,0,0.9,0.3
								c0.2,0.3,0,0.7-0.3,0.9L20.4,30.4C20.3,30.4,20.2,30.4,20.1,30.4"/>
						</g>
						<g id="Path_42458">
							<path class="st7" d="M29.6,34.8c-0.4,0-0.7-0.3-0.7-0.6c0-0.2,0.1-0.5,0.4-0.6l38.5-19.3c0.3-0.2,0.7,0,0.9,0.3
								c0.2,0.3,0,0.7-0.3,0.9l0,0L29.9,34.8C29.8,34.8,29.7,34.8,29.6,34.8"/>
						</g>
					</g>
				</g>
			</g>
		</g>
	</g>
	<g id="Group_38662" transform="translate(0 18.017)">
		<g id="Group_38658" transform="translate(21.665 -312.521)">
			<g id="Path_42415">
				<path class="st8" d="M406.9,2483.2l-4.3,3.1l-1.6,4.6l0.6,5.1l2.6,3.1l1,2.4l0.6,2l-1.6,1.4l-1.6,1.5l0.8,1.2l0.8,1.1v2.8
					l1.6,0.8h1.8l1,1.9l1,0.7l0.7,0.7c0.3,0.1,0.6,0.1,1,0c0.3-0.1,0.5-0.1,0.8,0c0,0,0.2-0.2,0.6-0.7c0.3-0.4,0.6-0.8,0.8-1.2h2.1
					l1.3-1.3l0.6-0.8l0,0v-1.1c0,0,0.7-0.3,0-0.6s0-1.1,0-1.1s0.5,1.7,1,0c0.3-1.1,0.3-2.2,0-3.3l-1.6-0.5v-0.5l-0.6-1.4l0.6-1.5
					l1.6-2.4l1.9-3.7l0.8-3.3l-0.8-2.9l-0.6-2.3l-3.5-2.6l-2.9-1.1l-2.7-0.6h-2.3L406.9,2483.2z"/>
			</g>
			<g id="Group_38657" transform="translate(385.854 2474)">
				<g id="Path_42405">
					<path class="st7" d="M50.2,49.1c-0.1-5-3.1-9.6-7.6-11.7c-1.2-0.6-2.5-1-3.8-1.4c-1.1-0.3-2.1-0.7-3.1-1.1
						c-0.2,0.6-0.6,1.1-1.1,1.6c1.2,0.5,2.4,1,3.6,1.3c1.2,0.3,2.4,0.8,3.5,1.3c4.3,2,6.9,6.3,6.6,11c0,0.1,0,0.1,0,0.2v6.5
						c0,1-0.8,1.9-1.9,1.9c0,0,0,0,0,0H3.8c-1,0-1.9-0.8-1.9-1.9l0,0v-6.5c0-0.1,0-0.1,0-0.2c-0.3-4.7,2.3-9.1,6.6-11
						c1.1-0.5,2.3-1,3.5-1.3c1.2-0.3,2.4-0.8,3.6-1.3c-0.5-0.5-0.8-1-1.1-1.6c-1,0.4-2,0.8-3.1,1.1c-1.3,0.4-2.6,0.8-3.8,1.4
						C3.1,39.6,0.1,44.1,0,49.1c0,0,0,0.1,0,0.1v7.6c0,2.1,1.7,3.8,3.8,3.8h42.6c2.1,0,3.8-1.7,3.8-3.8L50.2,49.1
						C50.2,49.2,50.2,49.2,50.2,49.1L50.2,49.1z"/>
				</g>
				<g id="Path_42406">
					<path class="st7" d="M17,25.2c1.3,1.4,2,3.2,2.1,5.1h-0.1c-1.6,0-2.8,1.3-2.8,2.8c0,1.1,0.7,2.1,1.7,2.6
						c-0.7,1.4-0.1,3.1,1.4,3.8c0.4,0.2,0.8,0.3,1.2,0.3h1.1c0.5,2,2.6,3.2,4.6,2.7c1.3-0.3,2.4-1.4,2.7-2.7h1.1
						c1.6,0,2.8-1.3,2.8-2.8c0-0.4-0.1-0.8-0.3-1.2c1.4-0.6,2.1-2.3,1.4-3.7c-0.4-1-1.4-1.6-2.4-1.7c0.1-2,0.8-4,2.1-5.5
						c3.6-4.2,3.2-10.5-0.8-14.2c-2.2-2.1-5.2-3.2-8.2-3c-5.6,0.2-10.1,4.7-10.3,10.3C14.1,20.6,15.1,23.2,17,25.2L17,25.2z
						 M25.1,40.7c-0.7,0-1.3-0.4-1.6-0.9h3.3C26.4,40.4,25.8,40.7,25.1,40.7L25.1,40.7z M29.8,37.9h-9.5c-0.5,0-0.9-0.4-0.9-0.9
						c0-0.5,0.4-0.9,0.9-0.9c0,0,0,0,0,0h9.5c0.5,0,0.9,0.4,0.9,0.9C30.8,37.5,30.4,37.9,29.8,37.9C29.8,37.9,29.8,37.9,29.8,37.9z
						 M32.2,33.1c0,0.5-0.4,0.9-0.9,0.9H18.9c-0.5,0-0.9-0.4-0.9-0.9c0-0.5,0.4-0.9,0.9-0.9c0,0,0,0,0,0h12.3
						C31.8,32.2,32.2,32.6,32.2,33.1L32.2,33.1z M24.6,9.5c2.5-0.1,5,0.8,6.8,2.5c1.7,1.6,2.7,3.8,2.7,6.2c0,2-0.7,3.9-2,5.5
						c-1.6,1.9-2.5,4.2-2.6,6.7H21c-0.1-2.4-1-4.7-2.6-6.4c-1.5-1.6-2.3-3.7-2.2-5.9C16.3,13.3,20,9.7,24.6,9.5L24.6,9.5z"/>
				</g>
				<g id="Path_42407">
					<path class="st7" d="M25.1,5.7c0.5,0,0.9-0.4,0.9-0.9V0.9C26,0.4,25.6,0,25.1,0c-0.5,0-0.9,0.4-0.9,0.9v3.8
						C24.2,5.3,24.6,5.7,25.1,5.7L25.1,5.7z"/>
				</g>
				<g id="Path_42408">
					<path class="st7" d="M35.5,9.9c0.3,0,0.5-0.1,0.7-0.3L39,6.8c0.4-0.4,0.4-1,0-1.3c-0.4-0.4-0.9-0.4-1.3,0l-2.8,2.8
						c-0.4,0.4-0.4,1,0,1.3C35,9.8,35.3,9.9,35.5,9.9L35.5,9.9z"/>
				</g>
				<g id="Path_42409">
					<path class="st7" d="M36.3,25.8c-0.4,0.4-0.4,1,0,1.3l2.8,2.8c0.4,0.4,1,0.4,1.3,0c0.4-0.4,0.4-0.9,0-1.3l-2.8-2.8
						C37.2,25.5,36.6,25.5,36.3,25.8z"/>
				</g>
				<g id="Path_42410">
					<path class="st7" d="M37.9,18c0,0.5,0.4,0.9,0.9,0.9h3.8c0.5,0,0.9-0.4,0.9-0.9c0-0.5-0.4-0.9-0.9-0.9h-3.8
						C38.3,17,37.9,17.5,37.9,18z"/>
				</g>
				<g id="Path_42411">
					<path class="st7" d="M14,9.7c0.4,0.4,1,0.4,1.3,0c0.4-0.4,0.4-0.9,0-1.3l-2.8-2.8c-0.4-0.4-1-0.4-1.3,0c-0.4,0.4-0.4,0.9,0,1.3
						L14,9.7z"/>
				</g>
				<g id="Path_42412">
					<path class="st7" d="M12.6,25.8l-2.8,2.8c-0.4,0.4-0.4,1,0,1.3c0.4,0.4,1,0.4,1.3,0c0,0,0,0,0,0l2.8-2.8c0.4-0.4,0.4-1,0-1.3
						C13.5,25.5,13,25.5,12.6,25.8z"/>
				</g>
				<g id="Path_42413">
					<path class="st7" d="M7.6,18.9h3.8c0.5,0,0.9-0.4,0.9-0.9c0-0.5-0.4-0.9-0.9-0.9c0,0,0,0,0,0H7.6C7,17,6.6,17.5,6.6,18
						C6.6,18.5,7,18.9,7.6,18.9C7.6,18.9,7.6,18.9,7.6,18.9L7.6,18.9z"/>
				</g>
				<g id="Path_42414">
					<path class="st7" d="M18.9,20.4L18.9,20.4c0.5,0,1-0.4,1-0.9c0-0.2,0.1-4.7,4-5.7c0.5-0.1,0.8-0.7,0.7-1.2s-0.7-0.8-1.2-0.7
						l0,0C19.2,13,18,17.3,18,19.4C18,19.9,18.4,20.4,18.9,20.4L18.9,20.4z"/>
				</g>
			</g>
		</g>
		<g id="Rectangle_16001">
			<rect x="385.9" y="2145.1" class="st9" width="93.3" height="93.3"/>
		</g>
	</g>
</g>
</svg>
